<?xml version="1.0" encoding="UTF-8" standalone="no"?>
<svg
   xmlns:dc="http://purl.org/dc/elements/1.1/"
   xmlns:cc="http://creativecommons.org/ns#"
   xmlns:rdf="http://www.w3.org/1999/02/22-rdf-syntax-ns#"
   xmlns:svg="http://www.w3.org/2000/svg"
   xmlns="http://www.w3.org/2000/svg"
   xmlns:sodipodi="http://sodipodi.sourceforge.net/DTD/sodipodi-0.dtd"
   xmlns:inkscape="http://www.inkscape.org/namespaces/inkscape"
   sodipodi:docname="build.svg"
   inkscape:version="1.0 (4035a4fb49, 2020-05-01)"
   inkscape:export-ydpi="96.000008"
   inkscape:export-xdpi="96.000008"
   inkscape:export-filename="C:\Users\jkoehler\Downloads\user\html\gridGame\build.png"
   id="svg8"
   version="1.1"
   viewBox="0 0 8.4666665 8.4666669"
   height="32"
   width="32">
  <defs
     id="defs2">
    <inkscape:path-effect
       split_items="false"
       oposite_fuse="false"
       fuse_paths="false"
       discard_orig_path="false"
       mode="free"
       lpeversion="1"
       is_visible="true"
       id="path-effect1360"
       center_point="4.4023602,4.495691"
       end_point="4.4023602,5.753643"
       start_point="4.4023602,3.237739"
       effect="mirror_symmetry" />
    <inkscape:path-effect
       split_items="false"
       mirror_copies="false"
       copies_to_360="true"
       gap="-0.01"
       rotation_angle="60"
       starting_angle="0"
       num_copies="6"
       method="normal"
       lpeversion="1"
       is_visible="true"
       id="path-effect1354"
       origin="4.7315058,7.7090379"
       starting_point="5.7357167,7.7299184"
       effect="copy_rotate" />
    <inkscape:path-effect
       split_items="false"
       mirror_copies="false"
       copies_to_360="true"
       gap="-0.01"
       rotation_angle="90"
       starting_angle="90"
       num_copies="4"
       method="normal"
       lpeversion="1"
       is_visible="true"
       id="path-effect1295"
       origin="4.2049851,4.1270062"
       starting_point="4.2404204,0.023623568"
       effect="copy_rotate" />
    <inkscape:path-effect
       split_items="false"
       oposite_fuse="false"
       fuse_paths="false"
       discard_orig_path="false"
       mode="free"
       lpeversion="1"
       is_visible="true"
       id="path-effect1292"
       center_point="3.3309152,4.1104909"
       end_point="1.3465402,4.1034038"
       start_point="5.3152902,4.117578"
       effect="mirror_symmetry" />
    <marker
       inkscape:isstock="true"
       style="overflow:visible"
       id="Arrow1Mstart"
       refX="0.0"
       refY="0.0"
       orient="auto"
       inkscape:stockid="Arrow1Mstart">
      <path
         transform="scale(0.4) translate(10,0)"
         style="fill-rule:evenodd;stroke:#000000;stroke-width:1pt;stroke-opacity:1;fill:#000000;fill-opacity:1"
         d="M 0.0,0.0 L 5.0,-5.0 L -12.5,0.0 L 5.0,5.0 L 0.0,0.0 z "
         id="path852" />
    </marker>
    <marker
       inkscape:isstock="true"
       style="overflow:visible;"
       id="Arrow1Mend"
       refX="0.0"
       refY="0.0"
       orient="auto"
       inkscape:stockid="Arrow1Mend">
      <path
         transform="scale(0.4) rotate(180) translate(10,0)"
         style="fill-rule:evenodd;stroke:#000000;stroke-width:1pt;stroke-opacity:1;fill:#000000;fill-opacity:1"
         d="M 0.0,0.0 L 5.0,-5.0 L -12.5,0.0 L 5.0,5.0 L 0.0,0.0 z "
         id="path855" />
    </marker>
    <marker
       inkscape:isstock="true"
       style="overflow:visible;"
       id="Arrow1Lend"
       refX="0.0"
       refY="0.0"
       orient="auto"
       inkscape:stockid="Arrow1Lend">
      <path
         transform="scale(0.8) rotate(180) translate(12.5,0)"
         style="fill-rule:evenodd;stroke:#000000;stroke-width:1pt;stroke-opacity:1;fill:#000000;fill-opacity:1"
         d="M 0.0,0.0 L 5.0,-5.0 L -12.5,0.0 L 5.0,5.0 L 0.0,0.0 z "
         id="path849" />
    </marker>
    <marker
       inkscape:isstock="true"
       style="overflow:visible"
       id="Arrow1Lstart"
       refX="0.0"
       refY="0.0"
       orient="auto"
       inkscape:stockid="Arrow1Lstart">
      <path
         transform="scale(0.8) translate(12.5,0)"
         style="fill-rule:evenodd;stroke:#000000;stroke-width:1pt;stroke-opacity:1;fill:#000000;fill-opacity:1"
         d="M 0.0,0.0 L 5.0,-5.0 L -12.5,0.0 L 5.0,5.0 L 0.0,0.0 z "
         id="path846" />
    </marker>
    <inkscape:path-effect
       split_items="false"
       mirror_copies="false"
       copies_to_360="true"
       gap="-0.01"
       rotation_angle="90"
       starting_angle="0"
       num_copies="4"
       method="normal"
       lpeversion="1"
       is_visible="true"
       id="path-effect842"
       origin="3.9569383,4.2876674"
       starting_point="5.8999721,4.2404204"
       effect="copy_rotate" />
    <inkscape:path-effect
       split_items="false"
       mirror_copies="false"
       copies_to_360="true"
       gap="-0.01"
       rotation_angle="90"
       starting_angle="0"
       num_copies="4"
       method="normal"
       lpeversion="1"
       is_visible="true"
       id="path-effect835"
       origin="1.1457403,4.063244"
       starting_point="4.3821615,4.9373139"
       effect="copy_rotate" />
  </defs>
  <sodipodi:namedview
     inkscape:window-maximized="1"
     inkscape:window-y="-9"
     inkscape:window-x="1911"
     inkscape:window-height="1361"
     inkscape:window-width="2560"
     showborder="true"
     borderlayer="true"
     inkscape:showpageshadow="false"
     units="px"
     showgrid="false"
     inkscape:document-rotation="0"
     inkscape:current-layer="layer2"
     inkscape:document-units="mm"
     inkscape:cy="15.623193"
     inkscape:cx="25.138365"
     inkscape:zoom="22.627417"
     inkscape:pageshadow="2"
     inkscape:pageopacity="0.0"
     borderopacity="1.0"
     bordercolor="#666666"
     pagecolor="#ffffff"
     id="base" />
  <metadata
     id="metadata5">
    <rdf:RDF>
      <cc:Work
         rdf:about="">
        <dc:format>image/svg+xml</dc:format>
        <dc:type
           rdf:resource="http://purl.org/dc/dcmitype/StillImage" />
        <dc:title></dc:title>
      </cc:Work>
    </rdf:RDF>
  </metadata>
  <g
     sodipodi:insensitive="true"
     style="display:none;opacity:0.102941"
     id="layer1"
     inkscape:groupmode="layer"
     inkscape:label="Layer 1">
    <path
       id="path1300"
       d="m 9.6738281,0.12992932 c 0.0098,0.18364888 -0.023394,0.36501805 -0.059059,0.54334076 -0.024872,0.12435831 0.00102,0.0585806 -0.023624,0.16536461 -0.025708,0.1114013 -0.063826,0.21759361 -0.082682,0.33072911 -0.00126,0.00756 -0.039034,0.173578 -0.035435,0.1771764 0.020219,0.020219 0.1044201,0.023354 0.1063059,0.023624 0.2977447,0.042535 0.597406,0.047247 0.897693,0.047247 0.06381,0 0.365603,0.017034 0.425224,0 0.0076,-0.00216 -0.0012,-0.015841 0,-0.023624 0.0067,-0.043508 0.01709,-0.086396 0.02362,-0.1299293 0.02866,-0.1910835 0.0283,-0.38612891 0.03543,-0.57877605 0.0012,-0.0314765 0,-0.0629961 0,-0.0944941 0,-0.0764675 -0.01584,-0.19245474 0,-0.27167038 0.0081,-0.0404002 0.01181,-0.0741702 0.01181,-0.11811757 0,-0.0227603 0.0134,-0.0810909 0.01181,-0.0826823 -0.02506,-0.0250566 -0.07087,0 -0.106306,0 -0.05512,0 -0.110243,0 -0.165365,0 -0.177679,0 -0.353867,0.0118118 -0.531529,0.0118118 -0.04171,0 -0.0889,0.006838 -0.129929,0 -0.1204706,-0.0200784 -0.2607782,-0.0468793 -0.3779769,2e-8 z"
       style="fill:none;stroke:#000000;stroke-width:0.264583px;stroke-linecap:butt;stroke-linejoin:miter;stroke-opacity:1" />
    <path
       id="path1302"
       d="m 12.910249,0.36616442 c -0.332366,0.17656953 -0.354161,0.13590418 -0.555152,0.38978795 -0.03915,0.0494522 -0.09952,0.18822472 -0.07087,0.25985863 0.01179,0.029473 0.0248,0.060237 0.04725,0.082682 0.01245,0.012451 0.03372,0.012351 0.04725,0.023624 0.01091,0.00909 0.01359,0.025397 0.02363,0.035435 0.112137,0.1121372 0.269271,0.1689849 0.413412,0.2244234 0.02799,0.010764 0.05315,0.030224 0.08268,0.035435 0.05816,0.010263 0.118117,0 0.177176,0 0.181,0 0.260933,0.00805 0.413411,-0.1063058 0.09166,-0.068748 0.189265,-0.2153788 0.2008,-0.33072921 0.0057,-0.05742 0,-0.1192898 0,-0.1771763 0,-0.0581415 -0.0011,-0.16641302 -0.04725,-0.21261162 -0.123016,-0.1230145 -0.283856,-0.14967736 -0.448848,-0.17717603 -0.04272,-0.00712 -0.07525,-0.041123 -0.118117,-0.047247 -0.01559,-0.002228 -0.0318,0.003089 -0.04725,0 -0.0055,-0.001093 -0.0068,-0.009322 -0.01181,-0.0118118 -0.04635,-0.0231735 -0.056,-0.008312 -0.106307,0.0118118 z"
       style="fill:none;stroke:#000000;stroke-width:0.264583px;stroke-linecap:butt;stroke-linejoin:miter;stroke-opacity:1" />
    <path
       id="path1304"
       d="m 14.752883,1.4174107 c 0.110243,-0.1811136 0.221056,-0.3618815 0.330729,-0.54334081 0.106877,-0.17683245 0.208827,-0.35667921 0.318918,-0.53152897 0.10329,-0.16404979 0.0475,-0.0546361 0.129929,-0.15355284 0.0012,-0.001463 0.01996,-0.0509106 0.03544,-0.0354353 0.0331,0.0331048 0.08541,0.32652781 0.09449,0.37797618 0.03569,0.20224837 0.0902,0.40358663 0.141741,0.60239954 0.02889,0.1114425 0.07253,0.200736 0.118118,0.3071056 0.0098,0.022888 0.01437,0.04775 0.02362,0.070871 0.0046,0.01156 0.003,0.026631 0.01181,0.035435 0.0028,0.00278 0.01575,0 0.01181,0 -0.245727,0 -0.477563,-0.067499 -0.720517,-0.094494 -0.193053,-0.02145 -0.384907,-0.035435 -0.578776,-0.035435"
       style="fill:none;stroke:#000000;stroke-width:0.264583px;stroke-linecap:butt;stroke-linejoin:miter;stroke-opacity:1" />
    <path
       id="path1306"
       d="m 14.280413,2.126116 c -0.358148,-0.012649 -0.71656,-0.015092 -1.07487,-0.023624 -0.07479,-0.00178 -0.149737,0.00427 -0.224423,0 -0.06338,-0.00362 -0.125605,-0.020002 -0.188988,-0.023624 -0.202638,-0.011579 -0.410981,0 -0.614212,0 -0.09658,0 -0.200391,0.00364 -0.295294,0.023624 -0.04022,0.00847 -0.07751,0.029024 -0.118117,0.035435 -0.035,0.00553 -0.07135,-0.00583 -0.106306,0 -0.129126,0.021521 -0.257784,0.058229 -0.377976,0.1063061 -0.139346,0.055739 -0.16704,0.045787 -0.27167,0.1653646 -0.0073,0.00838 -0.0201,0.013059 -0.02362,0.023624 -0.05749,0.1724583 0.256604,0.3159495 0.366164,0.3661645 0.15438,0.070757 0.309403,0.082668 0.47247,0.1181175 0.189619,0.041222 0.373704,0.081369 0.566964,0.1063058 0.261208,0.033704 0.5285,0.057389 0.791388,0.070871 0.251252,0.012885 0.504818,-0.014772 0.755952,0 0.06728,0.00396 0.133494,0.020172 0.2008,0.023625 0.165148,0.00847 0.33073,0 0.496094,0 0.21415,0 0.446842,-0.016492 0.649647,-0.094494 0.02143,-0.00824 0.03816,-0.025934 0.05906,-0.035435 0.02267,-0.010305 0.0486,-0.012488 0.07087,-0.023625 0.09064,-0.045323 0.160043,-0.2758216 0.129929,-0.3661657 -0.01275,-0.038251 -0.05539,-0.079017 -0.08268,-0.1063059 -0.05684,-0.056841 0.02142,0.015212 -0.08268,-0.047247 -0.02162,-0.012971 -0.03728,-0.034544 -0.05906,-0.047247 -0.148451,-0.086597 -0.490342,-0.1306869 -0.67327,-0.1535529 -0.04657,-0.00582 -0.08505,-0.027956 -0.129929,-0.035435 -0.02719,-0.00453 -0.05526,0.00274 -0.08268,0 -0.08752,-0.00875 -0.171494,-0.020783 -0.248047,-0.059059"
       style="fill:none;stroke:#000000;stroke-width:0.264583px;stroke-linecap:butt;stroke-linejoin:miter;stroke-opacity:1" />
    <path
       id="path1308"
       d="m 10.914063,2.5867745 c 0.146014,0.1879719 0.242591,0.4074456 0.377976,0.6023996 0.102293,0.1473018 0.184163,0.2252387 0.283482,0.3543528 0.07264,0.094438 0.132811,0.1975598 0.2008,0.2952937 0.06122,0.088008 0.08847,0.1037527 0.141741,0.1889882 0.02148,0.034375 0.03568,0.073189 0.05906,0.1063056 0.02413,0.034193 0.05855,0.060301 0.08268,0.094494 0.02338,0.033117 0.03704,0.072273 0.05906,0.1063059 0.11057,0.1708814 0.235699,0.3342881 0.342541,0.5079055 0.08167,0.1327105 0.143273,0.2747344 0.212611,0.4134115 0.07018,0.1403622 0.130831,0.2852846 0.2008,0.4252232 0.015,0.030001 0.01756,0.064804 0.03543,0.082682 0.01419,0.014195 0.03908,0.00981 0.05906,0.011811 0.187749,0.018775 0.378401,0.010155 0.566964,0.023625 0.01432,0.00103 0.09849,0.00782 0.106306,0 0.04972,-0.049716 0.0873,-0.1509818 0.118118,-0.2126114 0.0308,-0.061603 0.07254,-0.1171477 0.106305,-0.1771764 0.04414,-0.078476 0.02893,-0.072921 0.08268,-0.1535528 0.09601,-0.1440106 0.198762,-0.2897941 0.307106,-0.4252232 0.113462,-0.1418286 0.239425,-0.2729453 0.354352,-0.4134115 0.01798,-0.021974 0.02815,-0.049862 0.04725,-0.07087 0.02069,-0.022754 0.05044,-0.036075 0.07087,-0.059059 0.105049,-0.1181798 0.1746,-0.2550202 0.27167,-0.3779763 0.02415,-0.030592 0.0586,-0.052034 0.08268,-0.082682 0.01961,-0.024961 0.0282,-0.057288 0.04725,-0.082682 0.0167,-0.022273 0.03937,-0.039372 0.05906,-0.059059 0.02756,-0.035435 0.05614,-0.070105 0.08268,-0.1063059 0.08,-0.1090888 0.155085,-0.2225289 0.236236,-0.3307292 0.04054,-0.054048 0.01165,0.014462 0.05906,-0.070871 0.0103,-0.018534 0.0113,-0.041805 0.02362,-0.059059 0.0083,-0.011552 0.02635,-0.012718 0.03543,-0.023625 0.02297,-0.027564 0.03734,-0.064779 0.04725,-0.094494 0.0062,-0.018677 0.02152,-0.033327 0.03543,-0.047247 0.0028,-0.00278 0.01005,0.00352 0.01181,0 0.0035,-0.00704 -0.0035,-0.016581 0,-0.023625 0.0018,-0.00352 0.01005,0.00352 0.01181,0 0.0053,-0.010565 0,-0.023625 0,-0.035435"
       style="fill:none;stroke:#000000;stroke-width:0.264583px;stroke-linecap:butt;stroke-linejoin:miter;stroke-opacity:1" />
    <path
       id="path1310"
       d="m 13.335473,6.6854539 c -0.281834,0.08455 0.08286,-0.027743 -0.307106,0.1063056 -0.191405,0.065796 -0.175124,0.027734 -0.318918,0.1535531 -0.109051,0.095419 -0.03232,0.035631 -0.07087,0.1063056 -0.01778,0.032609 -0.04127,0.061885 -0.05906,0.094494 -0.01118,0.020492 -0.02063,0.078035 -0.02363,0.094494 -0.02894,0.1591475 0.01113,0.2397266 0.118118,0.3661646 0.03911,0.046217 0.113443,0.080345 0.165365,0.1063056 0.2163,0.1081503 0.45922,0.1181177 0.696893,0.1181177 0.170739,0 0.323906,0.014436 0.484282,-0.047247 0.01979,-0.00761 0.04232,-0.010607 0.05906,-0.023625 0.0199,-0.015478 0.0315,-0.039372 0.04725,-0.059059 0.02709,-0.033866 0.0881,-0.1079201 0.106306,-0.141741 0.103092,-0.191457 0.0575,-0.4945041 -0.106306,-0.6378347 C 13.977,6.7905612 13.867796,6.756721 13.701636,6.6736408 c -0.04398,-0.021987 -0.09651,-0.027862 -0.141741,-0.047247 -0.01618,-0.00693 -0.03032,-0.018785 -0.04725,-0.023625 -0.003,-8.467e-4 -0.174225,-0.014764 -0.177177,-0.011811 -0.02574,0.025739 -0.0045,0.067454 0,0.094494 z"
       style="fill:none;stroke:#000000;stroke-width:0.264583px;stroke-linecap:butt;stroke-linejoin:miter;stroke-opacity:1" />
    <path
       id="path1312"
       d="m 12.520461,6.9453126 c -0.03543,-0.1141804 -0.06497,-0.2303598 -0.106305,-0.342541 -0.01891,-0.051326 -0.06539,-0.08985 -0.08268,-0.1417412 -0.0012,-0.00374 0.0079,0 0.01181,0 0.02756,0 0.05512,0 0.08268,0 0.0587,0 0.08419,-0.00388 0.141741,0.011811 0.05585,0.015232 0.110851,0.033619 0.165364,0.047247 0.04662,0.011655 0.142849,-0.010702 0.153553,0 0.0056,0.00557 -0.0044,0.017071 0,0.023625 0.02672,0.040087 0.01006,-0.017079 0.03543,0.059059 0.0078,0.0235 0.02362,0.02892 0.02362,0.059059"
       style="fill:none;stroke:#000000;stroke-width:0.264583px;stroke-linecap:butt;stroke-linejoin:miter;stroke-opacity:1" />
    <path
       id="path1314"
       d="m 13.335471,6.6854518 c -0.04331,-0.094493 -0.11429,-0.1807176 -0.129928,-0.2834802 -0.05485,-0.3604566 0.108071,-0.274099 0.342541,-0.2480468 0.06904,0.00767 0.131756,0.011811 0.2008,0.011811 0.0039,0 0.01005,-0.00352 0.01181,0 0.0035,0.00704 -0.0079,0.023625 0,0.023625 0.0067,0 -0.02004,-0.1732391 0,0.047247 0.0054,0.059581 0.02702,0.1182347 0.03543,0.1771764 0.0064,0.045097 0,0.096005 0,0.141741"
       style="fill:none;stroke:#000000;stroke-width:0.264583px;stroke-linecap:butt;stroke-linejoin:miter;stroke-opacity:1" />
    <path
       id="path1316"
       d="m 14.032366,6.7917595 c 0.01181,-0.031498 0.017,-0.066355 0.03543,-0.094494 0.05696,-0.086947 0.123736,-0.1671339 0.188988,-0.2480469 0.03543,-0.039373 0.07087,-0.078745 0.106306,-0.1181176 0,0.00394 -0.0039,0.011811 0,0.011811 0.0039,0 -0.0012,-0.015547 0,-0.011811 0.04252,0.1275535 0.113289,0.2640687 0.2008,0.3661645 0.01848,0.021556 0.02717,0.050794 0.04725,0.07087 0.01392,0.01392 0.03333,0.021516 0.04725,0.035435 0.01165,0.011652 0.150265,0.1922754 0.141741,0.2008 -0.04964,0.049638 -0.134151,0.073796 -0.2008,0.082682 -0.01241,0.00167 -0.141741,-0.012703 -0.141741,0.023625"
       style="fill:none;stroke:#000000;stroke-width:0.264583px;stroke-linecap:butt;stroke-linejoin:miter;stroke-opacity:1" />
    <path
       id="path1318"
       d="m 14.410342,7.4177827 c 0.145679,0.098431 0.296383,0.189805 0.437035,0.2952938 0.152477,0.1143577 -0.210534,0.1469083 -0.389788,0.2244236 -0.0315,0.013621 -0.0071,0.068512 -0.03543,0.082682 -0.02751,0.013753 -0.04627,-0.040608 -0.07087,-0.059059 -0.02539,-0.019045 -0.05729,-0.028201 -0.08268,-0.047247 -0.007,-0.00528 -0.0065,-0.016581 -0.01181,-0.023625 -0.02137,-0.028494 -0.0606,-0.035435 -0.09449,-0.035435"
       style="fill:none;stroke:#000000;stroke-width:0.264583px;stroke-linecap:butt;stroke-linejoin:miter;stroke-opacity:1" />
    <path
       id="path1320"
       d="m 13.772507,7.9020647 c -0.180287,0.3405428 -0.02393,0.1066101 -0.177176,0.2598586 -0.0048,0.00485 -0.01156,0.03242 -0.02362,0.035435 -0.120099,0.030025 -0.371231,-0.027843 -0.496093,-0.059059 -0.107474,-0.026868 -0.04848,-0.023625 -0.118118,-0.023625 -0.0074,0 -0.06485,0.00602 -0.07087,0 -0.0045,-0.0045 0.08894,-0.1834314 0.106306,-0.2007997"
       style="fill:none;stroke:#000000;stroke-width:0.264583px;stroke-linecap:butt;stroke-linejoin:miter;stroke-opacity:1" />
    <path
       id="path1322"
       d="m 12.650391,7.8548178 c -0.149616,0.078745 -0.299231,0.15749 -0.448847,0.236235 0.03839,-0.059427 -0.04958,0.042588 -0.05906,0.023625 -0.0168,-0.033596 -0.01318,-0.1034426 -0.02363,-0.1417413 -0.01954,-0.071643 -0.05418,-0.1402779 -0.07087,-0.2126115 -0.0063,-0.027128 -0.0056,-0.055555 -0.01181,-0.082682 -0.0076,-0.033098 -0.08268,-0.2007364 -0.08268,-0.2126117 0,-0.00394 0.008,9.525e-4 0.01181,0 0.02781,-0.00695 0.05499,-0.016238 0.08268,-0.023625 0.03137,-0.00837 0.063,-0.015748 0.09449,-0.023625 0.0099,-0.00246 0.276929,-0.064318 0.283482,-0.07087 0.0028,-0.00278 -0.0035,-0.010052 0,-0.011811 0.0051,-0.00257 0.03963,-0.011811 0.04725,-0.011811"
       style="opacity:1;fill:none;stroke:#000000;stroke-width:0.264583px;stroke-linecap:butt;stroke-linejoin:miter;stroke-opacity:1" />
  </g>
  <g
     inkscape:label="Layer 2"
     id="layer2"
     inkscape:groupmode="layer">
    <rect
       transform="rotate(-16.826178)"
       y="1.0778561"
       x="0.62168795"
       height="1.500093"
       width="1.4764695"
       id="rect1338"
       style="opacity:1;fill:#ff0000;stroke:#ff0000;stroke-width:0.264999;stroke-miterlimit:4;stroke-dasharray:none;stroke-opacity:1;fill-opacity:1" />
    <circle
       r="0.66145831"
       cy="1.0973121"
       cx="4.2333331"
       id="path1340"
       style="opacity:1;fill:#00ff22;stroke:#00ff22;stroke-width:0.264999;stroke-miterlimit:4;stroke-dasharray:none;stroke-opacity:1;fill-opacity:1" />
    <path
       transform="matrix(0.58394412,-0.92584783,0.92871094,0.58214389,0.91217103,6.8920927)"
       inkscape:transform-center-y="-0.031305915"
       inkscape:transform-center-x="-0.17892611"
       d="M 7.3776228,0.81028665 7.3526137,1.4625605 7.3276045,2.1148343 6.7752234,1.7670388 6.2228423,1.4192433 6.8002326,1.114765 Z"
       inkscape:randomized="0"
       inkscape:rounded="0"
       inkscape:flatsided="false"
       sodipodi:arg2="0.038322787"
       sodipodi:arg1="-1.0088748"
       sodipodi:r2="0.37686718"
       sodipodi:r1="0.75373435"
       sodipodi:cy="1.4481214"
       sodipodi:cx="6.9760232"
       sodipodi:sides="3"
       id="path1342"
       style="opacity:1;fill:#0000ff;stroke:#0000ff;stroke-width:0.241932;stroke-miterlimit:4;stroke-dasharray:none;fill-opacity:1"
       sodipodi:type="star" />
    <g
       transform="translate(-0.21036793)"
       id="g1370">
      <path
         style="fill:none;fill-opacity:1;stroke:#000000;stroke-width:0.264583px;stroke-linecap:butt;stroke-linejoin:miter;stroke-opacity:1"
         d="M 2.3624699,3.5767363 C 3.1419797,4.312475 3.8486608,5.1083765 4.1271461,6.258005 H 4.4437013 M 6.4422505,3.5767363 C 5.6627407,4.312475 4.9560596,5.1083765 4.6775743,6.258005 H 4.3610191"
         id="path1346"
         sodipodi:nodetypes="ccc"
         inkscape:path-effect="#path-effect1360"
         inkscape:original-d="M 2.3624699,3.5767363 C 3.1419797,4.312475 3.8486608,5.1083765 4.1271461,6.258005 h 0.3165552"
         transform="translate(0.04134115,-0.52916667)" />
      <ellipse
         style="fill:#b9b9b9;fill-opacity:1;stroke:#000000;stroke-width:0.264999;stroke-miterlimit:4;stroke-dasharray:none;stroke-opacity:1"
         id="path1344"
         cx="4.4437013"
         cy="3.0923178"
         rx="2.0292597"
         ry="0.45475259" />
    </g>
    <g
       transform="rotate(18.759447,5.3509288,6.5425364)"
       id="g1358">
      <circle
         style="opacity:1;fill:none;fill-opacity:1;stroke:#000000;stroke-width:0.264999;stroke-miterlimit:4;stroke-dasharray:none;stroke-opacity:1"
         id="path1350"
         cx="4.5041738"
         cy="7.5245852"
         r="0.41189042" />
      <path
         style="fill:#000000;fill-opacity:1;stroke:#000000;stroke-width:0.15875;stroke-linecap:butt;stroke-linejoin:miter;stroke-miterlimit:4;stroke-dasharray:none;stroke-opacity:1"
         d="m 4.639741,7.3412431 0.013717,-0.659679 0.2362867,7.822e-4 -0.0045,0.6640055 M 4.3671037,7.6046111 3.8026633,7.2628927 3.921484,7.0586535 4.4942774,7.3945574 M 4.4588685,7.972406 3.8807114,8.2903666 3.7632455,8.0853452 4.3405434,7.7572435 m 0.4827272,0.3195893 -0.013717,0.659679 -0.2362867,-7.822e-4 0.0045,-0.6640055 M 5.0959079,7.8134648 5.6603484,8.1551832 5.5415276,8.3594224 4.9687342,8.0235185 m 0.035409,-0.5778486 0.5781571,-0.3179606 0.117466,0.2050214 -0.577298,0.3281017"
         id="path1352"
         inkscape:path-effect="#path-effect1354"
         inkscape:original-d="M 4.632115,7.3432302 V 6.6834086 l 0.2362519,-0.00413 0.0093,0.6639557"
         sodipodi:nodetypes="cccc"
         transform="translate(-0.22733206,-0.1844527)" />
    </g>
  </g>
</svg>
